<svg xmlns="http://www.w3.org/2000/svg" xmlns:xlink="http://www.w3.org/1999/xlink" viewBox="0 0 66 48" fill="##9ba9bc" fill-rule="evenodd" stroke="#000" stroke-linecap="round" stroke-linejoin="round" width="300" height="300" font-family="Roboto" font-size="14px" text-anchor="middle"><defs><style type="text/css"></style></defs><use xlink:href="#A" x=".5" y=".5"></use><symbol id="A" overflow="visible"><path d="M40.776 0C27.95 0 17.553 10.397 17.553 23.224S27.95 46.448 40.776 46.448 64 36.05 64 23.224 53.603 0 40.776 0zm0 29.03a5.76 5.76 0 0 1-5.806-5.806 5.76 5.76 0 0 1 5.806-5.806 5.76 5.76 0 0 1 5.806 5.806c0 3.105-2.7 5.806-5.806 5.806zM0 23.224a5.76 5.76 0 0 1 1.687-4.119 5.76 5.76 0 0 1 4.119-1.687 5.76 5.76 0 0 1 5.806 5.806 5.76 5.76 0 0 1-5.806 5.806C2.565 29.03 0 26.33 0 23.224" stroke="none" fill="#9ba9bc" fill-rule="nonzero"></path></symbol></svg>