<?xml version="1.0" encoding="UTF-8" standalone="no"?>
<svg
   xmlns:dc="http://purl.org/dc/elements/1.1/"
   xmlns:cc="http://creativecommons.org/ns#"
   xmlns:rdf="http://www.w3.org/1999/02/22-rdf-syntax-ns#"
   xmlns:svg="http://www.w3.org/2000/svg"
   xmlns="http://www.w3.org/2000/svg"
   xmlns:sodipodi="http://sodipodi.sourceforge.net/DTD/sodipodi-0.dtd"
   xmlns:inkscape="http://www.inkscape.org/namespaces/inkscape"
   width="256px"
   height="292px"
   viewBox="0 0 256 292"
   version="1.1"
   preserveAspectRatio="xMidYMid"
   id="svg2"
   inkscape:version="0.91 r13725"
   sodipodi:docname="shopify-logo.svg">
  <metadata
     id="metadata16">
    <rdf:RDF>
      <cc:Work
         rdf:about="">
        <dc:format>image/svg+xml</dc:format>
        <dc:type
           rdf:resource="http://purl.org/dc/dcmitype/StillImage" />
      </cc:Work>
    </rdf:RDF>
  </metadata>
  <defs
     id="defs14" />
  <sodipodi:namedview
     pagecolor="#ffffff"
     bordercolor="#666666"
     borderopacity="1"
     objecttolerance="10"
     gridtolerance="10"
     guidetolerance="10"
     inkscape:pageopacity="0"
     inkscape:pageshadow="2"
     inkscape:window-width="1445"
     inkscape:window-height="856"
     id="namedview12"
     showgrid="false"
     inkscape:zoom="0.80821918"
     inkscape:cx="-21.09322"
     inkscape:cy="146"
     inkscape:window-x="0"
     inkscape:window-y="0"
     inkscape:window-maximized="0"
     inkscape:current-layer="svg2" />
  <g
     id="g4">
    <path
       d="m 223.77363,57.340208 c -0.2007,-1.460868 -1.47954,-2.268312 -2.53669,-2.35699 -1.05481,-0.08868 -23.38321,-1.74324 -23.38321,-1.74324 0,0 -15.50713,-15.395114 -17.20836,-17.098681 -1.70357,-1.703568 -5.02902,-1.185497 -6.31953,-0.805111 -0.19136,0.05601 -3.38847,1.043143 -8.67886,2.679035 C 160.46627,23.110174 151.32534,9.4116258 135.2418,9.4116258 c -0.44339,0 -0.90079,0.018669 -1.35819,0.04434 -4.57396,-6.0488307 -10.24007,-8.67652493 -15.13374,-8.67652493 -37.464478,0 -55.363603,46.83409863 -60.97604,70.63503363 -14.557333,4.510953 -24.900086,7.717393 -26.220934,8.132783 -8.125783,2.54835 -8.382485,2.805052 -9.448965,10.461771 C 21.298821,95.805824 0.0369009,260.23507 0.0369009,260.23507 l 165.6777491,31.04226 89.771,-19.42066 c 0,0 -31.51366,-213.055595 -31.71202,-214.516462 l 0,0 z M 156.48972,40.848276 c -4.16091,1.288177 -8.89122,2.751378 -14.01826,4.338263 0.005,-0.987136 0.009,-1.960269 0.009,-3.022082 0,-9.264606 -1.28585,-16.722963 -3.3488,-22.636442 8.28681,1.04081 13.8059,10.468771 17.35772,21.320261 l 0,0 z M 128.85226,21.364601 c 2.30331,5.773459 3.80152,14.05793 3.80152,25.238466 0,0.571745 -0.005,1.094483 -0.009,1.624223 -9.11758,2.823721 -19.02394,5.890142 -28.95364,8.965898 5.5751,-21.516289 16.0252,-31.908049 25.16146,-35.828587 l 0,0 z M 117.72073,10.828154 c 1.61722,0 3.24611,0.548408 4.80499,1.621889 C 110.51907,18.099819 97.648972,32.33044 92.213893,60.747342 84.270135,63.207014 76.506069,65.610677 69.32775,67.834649 75.693957,46.159672 90.811367,10.828154 117.72073,10.828154 l 0,0 z"
       id="path6"
       inkscape:connector-curvature="0"
       style="fill:#9ba9bc" />
    <path
       d="m 221.23694,54.983218 c -1.05481,-0.08868 -23.38321,-1.74324 -23.38321,-1.74324 0,0 -15.50713,-15.395114 -17.20836,-17.098681 -0.63709,-0.634754 -1.49587,-0.959132 -2.39433,-1.099151 L 165.72399,291.275 255.48565,271.85667 c 0,0 -31.51366,-213.055595 -31.71202,-214.516462 -0.2007,-1.460868 -1.47954,-2.268312 -2.53669,-2.35699"
       id="path8"
       inkscape:connector-curvature="0"
       style="fill:#9ba9bc" />
    <path
       d="M135.241802,104.585029 L124.173282,137.510551 C124.173282,137.510551 114.474617,132.334507 102.586984,132.334507 C85.1592573,132.334507 84.2818035,143.272342 84.2818035,146.028387 C84.2818035,161.066452 123.48252,166.828244 123.48252,202.052414 C123.48252,229.764553 105.90544,247.610004 82.2048516,247.610004 C53.7646126,247.610004 39.2212821,229.90924 39.2212821,229.90924 L46.8359944,204.750118 C46.8359944,204.750118 61.7853808,217.585214 74.4011133,217.585214 C82.6435785,217.585214 85.9970391,211.095323 85.9970391,206.353338 C85.9970391,186.736644 53.8369559,185.861524 53.8369559,153.629098 C53.8369559,126.500372 73.3089633,100.246767 112.614694,100.246767 C127.760108,100.246767 135.241802,104.585029 135.241802,104.585029"
       fill="#FFFFFF"
       id="path10" />
  </g>
</svg>
