<svg xmlns="http://www.w3.org/2000/svg" viewBox="0 0 35 45" width="35" height="45">
	<style>
		tspan { white-space:pre }
		.shp0 { fill: #4caf50 } 
	</style>
	<g id="Object">
		<path id="Shape 4" class="shp0" d="M1 42.24L32.61 2L34 2L1 44L1 42.24ZM27.73 2L29.12 2L1 37.78L1 36.02L27.73 2ZM22.78 2L24.17 2L1 31.48L1 29.72L22.78 2ZM17.83 2L19.22 2L1 25.18L1 23.42L17.83 2ZM12.88 2L14.27 2L1 18.88L1 17.12L12.88 2ZM7.86 2L9.25 2L1 12.5L1 10.74L7.86 2ZM2.98 2L4.37 2L1 6.28L1 4.52L2.98 2ZM4.89 44L34 6.96L34 8.72L6.28 44L4.89 44ZM10.17 44L34 13.68L34 15.44L11.56 44L10.17 44ZM15.49 44L34 20.44L34 22.2L16.87 44L15.49 44ZM20.77 44L34 27.16L34 28.92L22.15 44L20.77 44ZM26.11 44L34 33.96L34 35.73L27.5 44L26.11 44ZM31.39 44L34 40.68L34 42.45L32.78 44L31.39 44Z" />
	</g>
</svg>