<svg xmlns="http://www.w3.org/2000/svg" viewBox="0 0 58 97" width="58" height="97">
	<style>
		tspan { white-space:pre }
		.shp0 { fill: #4caf50 } 
	</style>
	<g id="Object">
		<path id="Shape 7" class="shp0" d="M1 92.05L54.65 2L57 2L1 96L1 92.05ZM46.36 2L48.71 2L1 82.09L1 78.14L46.36 2ZM37.96 2L40.31 2L1 67.99L1 64.04L37.96 2ZM29.56 2L31.91 2L1 53.89L1 49.94L29.56 2ZM21.16 2L23.51 2L1 39.79L1 35.84L21.16 2ZM12.65 2L15 2L1 25.5L1 21.55L12.65 2ZM4.36 2L6.71 2L1 11.59L1 7.64L4.36 2ZM7.61 96L57 13.09L57 17.04L9.96 96L7.61 96ZM16.57 96L57 28.13L57 32.08L18.92 96L16.57 96ZM25.58 96L57 43.27L57 47.21L27.94 96L25.58 96ZM34.54 96L57 58.31L57 62.25L36.9 96L34.54 96ZM43.62 96L57 73.54L57 77.48L45.97 96L43.62 96ZM52.58 96L57 88.57L57 92.52L54.93 96L52.58 96Z" />
	</g>
</svg>