<svg xmlns="http://www.w3.org/2000/svg" viewBox="0 0 51 22" width="51" height="22">
	<style>
		tspan { white-space:pre }
		.shp0 { fill: #f436b8 } 
	</style>
	<g id="Object">
		<path id="Shape 3" class="shp0" d="M41.06 11.63C36.96 15.13 33.47 15.13 29.38 11.63C26.71 9.34 24.43 9.34 21.76 11.63C17.7 15.09 14.39 15.09 10.34 11.63C7.64 9.32 5.81 9.32 3.11 11.63L2 9.93C5.28 7.13 8.04 7.01 11.45 9.93C14.67 12.68 17.04 13.01 20.64 9.93C24.06 7.01 27.23 7.15 30.49 9.93C33.84 12.8 36.46 12.91 39.94 9.93C43.36 7.01 45.59 7.01 49 9.93L47.89 11.63C45.14 9.28 43.8 9.28 41.06 11.63ZM41.06 5.88C36.96 9.38 33.47 9.38 29.38 5.88C26.71 3.6 24.43 3.6 21.76 5.88C17.7 9.35 14.39 9.35 10.34 5.88C7.64 3.57 5.81 3.57 3.11 5.88L2 4.19C5.28 1.38 8.04 1.27 11.45 4.19C14.67 6.94 17.04 7.26 20.64 4.19C24.06 1.27 27.23 1.4 30.49 4.19C33.84 7.05 36.46 7.16 39.94 4.19C43.36 1.27 45.59 1.27 49 4.19L47.89 5.88C45.14 3.53 43.8 3.53 41.06 5.88ZM11.45 15.68C14.67 18.43 17.04 18.75 20.64 15.68C24.06 12.76 27.23 12.89 30.49 15.68C33.84 18.54 36.46 18.65 39.94 15.68C43.36 12.76 45.59 12.76 49 15.68L47.89 17.37C45.14 15.02 43.8 15.02 41.06 17.37C36.96 20.87 33.47 20.87 29.38 17.37C26.71 15.09 24.43 15.09 21.76 17.37C17.7 20.84 14.39 20.84 10.34 17.37C7.64 15.06 5.81 15.06 3.11 17.37L2 15.68C5.28 12.87 8.04 12.76 11.45 15.68Z" />
	</g>
</svg>