<svg xmlns="http://www.w3.org/2000/svg" viewBox="0 0 111 21" width="111" height="21">
	<style>
		tspan { white-space:pre }
		.shp0 { fill: #e91e63 } 
	</style>
	<g id="Object">
		<path id="Shape 8" class="shp0" d="M105.19 9.26C104.64 9.97 104.02 10.19 103.19 9.48L95.9 2.88C95.28 2.31 94.66 1.6 94.04 2.38L88.54 9.12C87.99 9.83 87.24 10.19 86.55 9.34L79.26 2.74C78.57 2.17 77.81 1.6 77.19 2.38L71.69 9.12C71.14 9.83 70.38 10.19 69.7 9.34L62.41 2.74C61.79 2.17 61.03 1.6 60.34 2.38L54.3 9.72C53.87 10.01 53.38 9.99 52.79 9.48L45.5 2.88C44.88 2.31 44.26 1.6 43.64 2.38L38.14 9.12C37.59 9.83 36.83 10.19 36.14 9.34L28.85 2.74C28.17 2.17 27.41 1.6 26.79 2.38L21.29 9.12C20.74 9.83 19.98 10.19 19.29 9.34L12 2.74C11.38 2.17 10.63 1.6 9.94 2.38L1 13.24L1 17.35L5.68 11.61C6.29 10.83 7.19 11.46 7.74 11.96L15.03 18.56C15.79 19.27 16.41 18.99 16.96 18.35L22.53 11.61C23.08 10.9 24.04 11.46 24.52 11.96L31.81 18.56C32.64 19.27 33.25 19.06 33.81 18.35L39.31 11.61C39.93 10.83 40.82 11.46 41.37 11.96L48.66 18.56C49.42 19.27 50.04 18.99 50.59 18.35L56.4 11.39C56.98 11.08 57.68 11.54 58.14 11.96L65.43 18.56C66.19 19.27 66.81 18.99 67.36 18.35L72.93 11.61C73.48 10.9 74.44 11.46 74.92 11.96L82.21 18.56C83.04 19.27 83.66 19.06 84.21 18.35L89.71 11.61C90.33 10.83 91.23 11.46 91.77 11.96L99.07 18.56C99.82 19.27 100.44 18.99 100.99 18.35L110 7.56L110 3.52L105.19 9.26Z" />
	</g>
</svg>